<svg id="Layer_1" data-name="Layer 1" xmlns="http://www.w3.org/2000/svg" xmlns:xlink="http://www.w3.org/1999/xlink" viewBox="0 0 941.55 606.69"><defs><style>.cls-1,.cls-2,.cls-3,.cls-4,.cls-5{fill:none;stroke-miterlimit:10;stroke-width:12px;}.cls-1{stroke:#000;}.cls-2{stroke:url(#linear-gradient);}.cls-3{stroke:url(#linear-gradient-2);}.cls-4{stroke:url(#linear-gradient-3);}.cls-5{stroke:url(#linear-gradient-4);}</style><linearGradient id="linear-gradient" x1="176.27" x2="176.27" y2="256.24" gradientUnits="userSpaceOnUse"><stop offset="0.13" stop-opacity="0"/><stop offset="0.72"/></linearGradient><linearGradient id="linear-gradient-2" x1="765.64" y1="0" x2="765.64" y2="256.24" xlink:href="#linear-gradient"/><linearGradient id="linear-gradient-3" x1="950.84" y1="51" x2="950.84" y2="487.41" gradientUnits="userSpaceOnUse"><stop offset="0.25" stop-opacity="0"/><stop offset="0.72"/></linearGradient><linearGradient id="linear-gradient-4" x1="950.84" y1="51" x2="950.84" y2="487.41" gradientTransform="matrix(-1, 0, 0, 1, 1022.67, 0)" xlink:href="#linear-gradient-3"/></defs><path class="cls-1" d="M511.51,250.24H881.86a9.68,9.68,0,0,1,9.45,7.57l61.53,275.62a9.68,9.68,0,0,1-9.45,11.79H511.51" transform="translate(-40.56 6)"/><path class="cls-1" d="M70.06,536.19v16.55a10.13,10.13,0,0,0,10.11,10.13H942.85A10.12,10.12,0,0,0,953,552.65L952.81,536" transform="translate(-40.56 6)"/><polyline class="cls-1" points="43.65 566.33 54.4 577.08 92.23 577.08 113.25 600.69 470.95 600.69"/><polyline class="cls-1" points="898.08 566.33 887.33 577.08 849.5 577.08 828.48 600.69 470.78 600.69"/><path class="cls-1" d="M511.52,250.62H881.87a9.67,9.67,0,0,1,9.45,7.57L952.85,533.8a9.68,9.68,0,0,1-9.45,11.79H511.52" transform="translate(-40.56 6)"/><path class="cls-1" d="M511.5,250.62H141.15a9.68,9.68,0,0,0-9.45,7.57L70.18,533.8a9.68,9.68,0,0,0,9.44,11.79H511.5" transform="translate(-40.56 6)"/><path class="cls-1" d="M511.52,368.9H530a110.62,110.62,0,0,1,42.56,8.52L952.81,536,573.36,422.69a133.93,133.93,0,0,0-38.26-5.59H511.52" transform="translate(-40.56 6)"/><path class="cls-1" d="M511.5,368.9H493.06a110.67,110.67,0,0,0-42.57,8.52L70.21,536,449.66,422.69a134,134,0,0,1,38.26-5.59H511.5" transform="translate(-40.56 6)"/><path class="cls-1" d="M888.26,253l-294.79,74.1a164.85,164.85,0,0,1-40.23,5H511.52" transform="translate(-40.56 6)"/><path class="cls-1" d="M134.78,253l294.79,74.1a164.85,164.85,0,0,0,40.23,5h41.72" transform="translate(-40.56 6)"/><polyline class="cls-2" points="158.29 256.24 158.29 6 194.24 6 194.24 256.24"/><polyline class="cls-3" points="783.61 256.24 783.61 6 747.66 6 747.66 256.24"/><path class="cls-4" d="M926,411l15.15,70.41h17.1c9.86,0,17.86-4.39,17.86-9.82V57H925.58Z" transform="translate(-40.56 6)"/><path class="cls-5" d="M96.67,411,81.52,481.41H64.42c-9.86,0-17.86-4.39-17.86-9.82V57H97.09Z" transform="translate(-40.56 6)"/></svg>